<?xml version="1.0" encoding="UTF-8" ?>
<!DOCTYPE svg PUBLIC "-//W3C//DTD SVG 1.1//EN" "http://www.w3.org/Graphics/SVG/1.1/DTD/svg11.dtd">
<svg width="1124pt" height="213pt" viewBox="0 0 1124 213" version="1.1" xmlns="http://www.w3.org/2000/svg">
<path fill="#1e5973" stroke="#1e5973" stroke-width="0.09375" opacity="1.00" d=" M 965.17 63.67 C 973.14 64.27 981.28 66.22 987.74 71.15 C 989.39 72.54 991.65 73.82 991.97 76.17 C 992.88 82.89 990.18 89.34 987.84 95.48 C 982.89 94.84 977.95 94.06 973.13 92.78 C 968.21 91.55 963.72 88.10 961.64 83.45 C 960.21 76.66 963.54 70.12 965.17 63.67 M 967.06 66.79 C 965.50 71.82 964.22 76.92 963.13 82.07 C 968.29 83.63 973.52 84.99 978.84 85.94 C 980.19 80.83 981.48 75.71 982.71 70.57 C 977.68 68.63 972.48 67.03 967.06 66.79 M 982.06 87.60 C 983.18 89.18 984.68 90.45 986.08 91.79 C 987.60 87.13 989.58 82.33 989.11 77.33 C 988.20 75.72 986.91 74.38 985.74 72.97 C 983.63 77.51 981.45 82.49 982.06 87.60 M 966.73 86.34 C 970.92 90.47 976.90 91.50 982.50 92.15 C 980.87 90.58 979.31 88.81 977.19 87.90 C 973.90 86.49 970.24 86.49 966.73 86.34 Z" />
<path fill="#fffffe" stroke="#fffffe" stroke-width="0.09375" opacity="1.00" d=" M 967.06 66.79 C 972.48 67.03 977.68 68.63 982.71 70.57 C 981.48 75.71 980.19 80.83 978.84 85.94 C 973.52 84.99 968.29 83.63 963.13 82.07 C 964.22 76.92 965.50 71.82 967.06 66.79 M 975.34 72.00 C 974.72 73.47 974.27 75.01 973.82 76.53 C 975.57 76.56 977.33 76.59 979.11 76.59 C 978.81 75.27 978.58 73.93 978.13 72.66 C 977.22 72.28 976.29 72.06 975.34 72.00 M 968.35 76.28 C 966.01 77.31 967.21 81.68 969.88 80.82 C 973.51 80.55 971.69 74.58 968.35 76.28 Z" />
<path fill="#fa9e35" stroke="#fa9e35" stroke-width="0.09375" opacity="1.00" d=" M 975.34 72.00 C 976.29 72.06 977.22 72.28 978.13 72.66 C 978.58 73.93 978.81 75.27 979.11 76.59 C 977.33 76.59 975.57 76.56 973.82 76.53 C 974.27 75.01 974.72 73.47 975.34 72.00 Z" />
<path fill="#fffffe" stroke="#fffffe" stroke-width="0.09375" opacity="1.00" d=" M 982.06 87.60 C 981.45 82.49 983.63 77.51 985.74 72.97 C 986.91 74.38 988.20 75.72 989.11 77.33 C 989.58 82.33 987.60 87.13 986.08 91.79 C 984.68 90.45 983.18 89.18 982.06 87.60 Z" />
<path fill="#fa9e35" stroke="#fa9e35" stroke-width="0.09375" opacity="1.00" d=" M 968.35 76.28 C 971.69 74.58 973.51 80.55 969.88 80.82 C 967.21 81.68 966.01 77.31 968.35 76.28 Z" />
<path fill="#fffffe" stroke="#fffffe" stroke-width="0.09375" opacity="1.00" d=" M 966.73 86.34 C 970.24 86.49 973.90 86.49 977.19 87.90 C 979.31 88.81 980.87 90.58 982.50 92.15 C 976.90 91.50 970.92 90.47 966.73 86.34 Z" />
<path fill="#1e5973" stroke="#1e5973" stroke-width="0.09375" opacity="1.00" d=" M 22.12 177.92 C 24.50 177.54 26.95 176.99 29.35 177.46 C 32.44 180.49 35.21 184.11 36.71 188.20 C 37.80 194.39 36.69 200.70 36.70 206.94 C 32.10 207.01 27.50 207.25 22.90 207.06 C 17.98 207.21 13.84 203.55 11.48 199.55 C 8.98 193.34 9.76 186.45 9.63 179.92 C 13.80 179.31 17.97 178.70 22.12 177.92 M 12.17 182.30 C 12.30 187.20 12.76 192.08 13.21 196.97 C 18.13 196.86 23.02 196.42 27.90 195.85 C 27.84 190.90 27.47 185.96 26.90 181.04 C 21.96 181.08 17.04 181.50 12.17 182.30 M 31.52 184.63 C 31.11 189.33 31.02 194.33 33.57 198.51 C 34.41 193.78 34.30 188.73 31.52 184.63 M 16.56 201.33 C 18.09 202.59 19.40 204.79 21.65 204.61 C 26.12 204.54 30.59 204.07 35.06 204.38 C 32.97 202.64 31.08 200.57 28.59 199.40 C 24.50 199.15 20.50 200.39 16.56 201.33 Z" />
<path fill="#fffffe" stroke="#fffffe" stroke-width="0.09375" opacity="1.00" d=" M 12.17 182.30 C 17.04 181.50 21.96 181.08 26.90 181.04 C 27.47 185.96 27.84 190.90 27.90 195.85 C 23.02 196.42 18.13 196.86 13.21 196.97 C 12.76 192.08 12.30 187.20 12.17 182.30 M 15.20 183.06 C 12.88 184.30 14.33 187.66 16.82 186.97 C 19.06 185.68 17.72 182.32 15.20 183.06 M 23.33 183.39 C 20.70 183.61 22.57 185.81 23.10 187.21 C 24.16 186.86 25.19 186.42 26.19 185.91 C 25.61 184.53 25.33 181.71 23.33 183.39 M 19.26 187.21 C 17.30 187.76 17.95 190.02 19.18 191.00 C 20.32 191.12 21.25 190.72 21.95 189.80 C 22.34 188.21 20.97 186.30 19.26 187.21 M 15.09 190.77 C 14.58 191.80 14.15 192.85 13.80 193.94 C 14.80 194.43 15.84 194.84 16.91 195.17 C 17.43 194.18 17.86 193.16 18.20 192.11 C 17.20 191.59 16.16 191.14 15.09 190.77 M 23.28 191.26 C 21.13 191.71 22.14 193.96 23.13 195.08 C 24.25 195.00 25.23 194.59 26.07 193.86 C 26.01 192.36 25.12 190.06 23.28 191.26 Z" />
<path fill="#fa9e35" stroke="#fa9e35" stroke-width="0.09375" opacity="1.00" d=" M 15.20 183.06 C 17.72 182.32 19.06 185.68 16.82 186.97 C 14.33 187.66 12.88 184.30 15.20 183.06 Z" />
<path fill="#fa9e35" stroke="#fa9e35" stroke-width="0.09375" opacity="1.00" d=" M 23.33 183.39 C 25.33 181.71 25.61 184.53 26.19 185.91 C 25.19 186.42 24.16 186.86 23.10 187.21 C 22.57 185.81 20.70 183.61 23.33 183.39 Z" />
<path fill="#fffffe" stroke="#fffffe" stroke-width="0.09375" opacity="1.00" d=" M 31.52 184.63 C 34.30 188.73 34.41 193.78 33.57 198.51 C 31.02 194.33 31.11 189.33 31.52 184.63 Z" />
<path fill="#fa9e35" stroke="#fa9e35" stroke-width="0.09375" opacity="1.00" d=" M 19.26 187.21 C 20.97 186.30 22.34 188.21 21.95 189.80 C 21.25 190.72 20.32 191.12 19.18 191.00 C 17.95 190.02 17.30 187.76 19.26 187.21 Z" />
<path fill="#fa9e35" stroke="#fa9e35" stroke-width="0.09375" opacity="1.00" d=" M 15.09 190.77 C 16.16 191.14 17.20 191.59 18.20 192.11 C 17.86 193.16 17.43 194.18 16.91 195.17 C 15.84 194.84 14.80 194.43 13.80 193.94 C 14.15 192.85 14.58 191.80 15.09 190.77 Z" />
<path fill="#fa9e35" stroke="#fa9e35" stroke-width="0.09375" opacity="1.00" d=" M 23.28 191.26 C 25.12 190.06 26.01 192.36 26.07 193.86 C 25.23 194.59 24.25 195.00 23.13 195.08 C 22.14 193.96 21.13 191.71 23.28 191.26 Z" />
<path fill="#fffffe" stroke="#fffffe" stroke-width="0.09375" opacity="1.00" d=" M 16.56 201.33 C 20.50 200.39 24.50 199.15 28.59 199.40 C 31.08 200.57 32.97 202.64 35.06 204.38 C 30.59 204.07 26.12 204.54 21.65 204.61 C 19.40 204.79 18.09 202.59 16.56 201.33 Z" />
</svg>
